<svg xmlns="http://www.w3.org/2000/svg" width="20" height="22" viewBox="0 0 20 22">
  <g fill="#FFF">
    <path d="M4.769 2.68L0 5.36v11.488l4.56 2.576C7.066 20.851 9.33 22 9.538 22c.209 0 2.437-1.149 4.978-2.576l4.56-2.576.035-5.744V5.361l-2.367-1.288a584.898 584.898 0 0 0-4.77-2.68L9.505 0 4.768 2.68zm10.269 2.96l1.984 1.113v8.703l-3.69 2.088c-2.019 1.149-3.76 2.089-3.864 2.054-.104 0-1.81-.94-3.794-2.089L2.09 15.456V6.754L5.813 4.63l3.725-2.158 1.74 1.009c.94.557 2.646 1.532 3.76 2.158z"/>
    <path d="M6.858 6.858L4.49 8.146v5.918l2.54 1.357 2.542 1.357 2.158-1.183c1.184-.627 2.158-1.288 2.158-1.427 0-.14-.487-.522-1.079-.8-.975-.523-1.149-.523-1.88-.036-1.079.696-1.6.696-2.924-.07-.94-.521-1.079-.765-1.079-2.158 0-1.392.14-1.636 1.08-2.193 1.322-.73 1.844-.73 2.923-.034.731.487.905.487 1.88-.035.592-.279 1.08-.662 1.08-.8 0-.28-3.934-2.507-4.387-2.507-.174 0-1.357.592-2.645 1.323z"/>
  </g>
</svg>
